# xmcd CD database file
#
# Track frame offsets:
#	150
#	15318
#	37273
#	54585
#	68806
#	85832
#	103908
#	117633
#	140695
#	158973
#	179615
#	198098
#
# Disc length: 2982 seconds
#
# Revision: 0
# Processed by: cddbd v1.5.2PL0 Copyright (c) Steve Scherf et al.
# Submitted via: CDex 1.50beta10
#
DISCID=ac0ba40c
DTITLE=Midnight Creepers - Daytona Blues
DYEAR=1987
DGENRE=Blues
TTITLE0=Ridin' The Dog
TTITLE1=Catch Me When I Fall
TTITLE2=Jookin'
TTITLE3=Big Mistake
TTITLE4=Missing You (And Drinking Wine)
TTITLE5=Keep A Secret
TTITLE6=Beer Drinkin' Woman (& A Whiskey Headed Man)
TTITLE7=Fork In The Road
TTITLE8=Hard Times
TTITLE9=Two-Headed Woman
TTITLE10=Prove Your Love
TTITLE11=Daytona Blues
EXTD=YEAR: 1987
EXTT0=
EXTT1=
EXTT2=
EXTT3=
EXTT4=
EXTT5=
EXTT6=
EXTT7=
EXTT8=
EXTT9=
EXTT10=
EXTT11=
PLAYORDER=
